<mxfile host="Electron" agent="Mozilla/5.0 (Macintosh; Intel Mac OS X 10_15_7) AppleWebKit/537.36 (KHTML, like Gecko) draw.io/26.0.4 Chrome/128.0.6613.186 Electron/32.2.5 Safari/537.36" version="26.0.4">
  <diagram name="Page-1" id="b5b7bab2-c9e2-2cf4-8b2a-24fd1a2a6d21">
    <mxGraphModel dx="954" dy="604" grid="1" gridSize="10" guides="1" tooltips="1" connect="1" arrows="1" fold="1" page="1" pageScale="1" pageWidth="827" pageHeight="1169" background="none" math="0" shadow="0">
      <root>
        <mxCell id="0" />
        <mxCell id="1" parent="0" />
        <mxCell id="UCEHGbMYzUQaj6lssGZn-2" value="Model" style="shape=folder;fontStyle=1;spacingTop=10;tabWidth=40;tabHeight=14;tabPosition=left;html=1;whiteSpace=wrap;" parent="1" vertex="1">
          <mxGeometry x="40" y="460" width="70" height="50" as="geometry" />
        </mxCell>
        <mxCell id="UCEHGbMYzUQaj6lssGZn-3" value="Repository" style="shape=folder;fontStyle=1;spacingTop=10;tabWidth=40;tabHeight=14;tabPosition=left;html=1;whiteSpace=wrap;" parent="1" vertex="1">
          <mxGeometry x="150" y="460" width="70" height="50" as="geometry" />
        </mxCell>
        <mxCell id="UCEHGbMYzUQaj6lssGZn-4" value="Controller" style="shape=folder;fontStyle=1;spacingTop=10;tabWidth=40;tabHeight=14;tabPosition=left;html=1;whiteSpace=wrap;" parent="1" vertex="1">
          <mxGeometry x="450" y="380" width="170" height="180" as="geometry" />
        </mxCell>
        <mxCell id="UCEHGbMYzUQaj6lssGZn-5" value="Service" style="shape=folder;fontStyle=1;spacingTop=10;tabWidth=40;tabHeight=14;tabPosition=left;html=1;whiteSpace=wrap;" parent="1" vertex="1">
          <mxGeometry x="280" y="460" width="70" height="50" as="geometry" />
        </mxCell>
        <mxCell id="UCEHGbMYzUQaj6lssGZn-6" value="Exception" style="shape=folder;fontStyle=1;spacingTop=10;tabWidth=40;tabHeight=14;tabPosition=left;html=1;whiteSpace=wrap;" parent="1" vertex="1">
          <mxGeometry x="280" y="550" width="70" height="50" as="geometry" />
        </mxCell>
        <mxCell id="UCEHGbMYzUQaj6lssGZn-7" value="Config" style="shape=folder;fontStyle=1;spacingTop=10;tabWidth=40;tabHeight=14;tabPosition=left;html=1;whiteSpace=wrap;" parent="1" vertex="1">
          <mxGeometry x="80" y="550" width="70" height="50" as="geometry" />
        </mxCell>
        <mxCell id="UCEHGbMYzUQaj6lssGZn-10" value="Config" style="shape=folder;fontStyle=1;spacingTop=10;tabWidth=40;tabHeight=14;tabPosition=left;html=1;whiteSpace=wrap;" parent="1" vertex="1">
          <mxGeometry x="500" y="400" width="70" height="50" as="geometry" />
        </mxCell>
        <mxCell id="UCEHGbMYzUQaj6lssGZn-12" value="Interceptors" style="shape=folder;fontStyle=1;spacingTop=10;tabWidth=40;tabHeight=14;tabPosition=left;html=1;whiteSpace=wrap;" parent="1" vertex="1">
          <mxGeometry x="495" y="500" width="80" height="50" as="geometry" />
        </mxCell>
        <mxCell id="UCEHGbMYzUQaj6lssGZn-16" style="edgeStyle=orthogonalEdgeStyle;rounded=0;orthogonalLoop=1;jettySize=auto;html=1;exitX=0;exitY=0;exitDx=0;exitDy=32;exitPerimeter=0;entryX=0;entryY=0;entryDx=70;entryDy=32;entryPerimeter=0;dashed=1;endArrow=open;endFill=0;" parent="1" source="UCEHGbMYzUQaj6lssGZn-3" target="UCEHGbMYzUQaj6lssGZn-2" edge="1">
          <mxGeometry relative="1" as="geometry" />
        </mxCell>
        <mxCell id="UCEHGbMYzUQaj6lssGZn-18" style="edgeStyle=orthogonalEdgeStyle;rounded=0;orthogonalLoop=1;jettySize=auto;html=1;exitX=0;exitY=0;exitDx=0;exitDy=32;exitPerimeter=0;entryX=0;entryY=0;entryDx=70;entryDy=32;entryPerimeter=0;endArrow=open;endFill=0;dashed=1;" parent="1" source="UCEHGbMYzUQaj6lssGZn-5" target="UCEHGbMYzUQaj6lssGZn-3" edge="1">
          <mxGeometry relative="1" as="geometry" />
        </mxCell>
        <mxCell id="UCEHGbMYzUQaj6lssGZn-19" style="edgeStyle=orthogonalEdgeStyle;rounded=0;orthogonalLoop=1;jettySize=auto;html=1;exitX=0.5;exitY=1;exitDx=0;exitDy=0;exitPerimeter=0;entryX=0;entryY=0;entryDx=20;entryDy=0;entryPerimeter=0;dashed=1;endArrow=open;endFill=0;" parent="1" source="UCEHGbMYzUQaj6lssGZn-5" target="UCEHGbMYzUQaj6lssGZn-6" edge="1">
          <mxGeometry relative="1" as="geometry" />
        </mxCell>
        <mxCell id="UCEHGbMYzUQaj6lssGZn-22" style="edgeStyle=orthogonalEdgeStyle;rounded=0;orthogonalLoop=1;jettySize=auto;html=1;entryX=0;entryY=0;entryDx=70;entryDy=23;entryPerimeter=0;dashed=1;endArrow=open;endFill=0;" parent="1" source="UCEHGbMYzUQaj6lssGZn-4" target="UCEHGbMYzUQaj6lssGZn-5" edge="1">
          <mxGeometry relative="1" as="geometry" />
        </mxCell>
        <mxCell id="UCEHGbMYzUQaj6lssGZn-23" style="edgeStyle=orthogonalEdgeStyle;rounded=0;orthogonalLoop=1;jettySize=auto;html=1;exitX=0;exitY=0;exitDx=0;exitDy=138.5;exitPerimeter=0;entryX=0;entryY=0;entryDx=70;entryDy=32;entryPerimeter=0;dashed=1;endArrow=open;endFill=0;" parent="1" source="UCEHGbMYzUQaj6lssGZn-4" target="UCEHGbMYzUQaj6lssGZn-6" edge="1">
          <mxGeometry relative="1" as="geometry" />
        </mxCell>
        <mxCell id="UCEHGbMYzUQaj6lssGZn-29" style="edgeStyle=orthogonalEdgeStyle;rounded=0;orthogonalLoop=1;jettySize=auto;html=1;exitX=0.75;exitY=1;exitDx=0;exitDy=0;exitPerimeter=0;entryX=0;entryY=0;entryDx=0;entryDy=14;entryPerimeter=0;dashed=1;endArrow=open;endFill=0;" parent="1" source="UCEHGbMYzUQaj6lssGZn-3" target="UCEHGbMYzUQaj6lssGZn-6" edge="1">
          <mxGeometry relative="1" as="geometry" />
        </mxCell>
      </root>
    </mxGraphModel>
  </diagram>
</mxfile>
